<svg width="36" height="36" viewBox="0 0 36 36" fill="none" xmlns="http://www.w3.org/2000/svg">
<path d="M3.375 13.5C3.375 5.625 11.25 5.625 18 5.625C24.75 5.625 32.625 5.625 32.625 13.5C32.625 22.5 24.75 12.375 24.75 12.375H11.25C11.25 12.375 3.375 22.5 3.375 13.5ZM12.375 15.75C12.375 15.75 6.75 21.375 6.75 31.5H29.25C29.25 21.375 23.625 15.75 23.625 15.75H12.375Z" stroke="white" stroke-width="2" stroke-linecap="round" stroke-linejoin="round"/>
<path d="M18 28.125C20.4853 28.125 22.5 26.1103 22.5 23.625C22.5 21.1397 20.4853 19.125 18 19.125C15.5147 19.125 13.5 21.1397 13.5 23.625C13.5 26.1103 15.5147 28.125 18 28.125Z" stroke="white" stroke-width="2" stroke-linecap="round" stroke-linejoin="round"/>
</svg>
